<svg xmlns="http://www.w3.org/2000/svg" viewBox="0 0 226 226" width="226" height="226" preserveAspectRatio="xMidYMid meet" style="width: 100%; height: 100%; transform: translate3d(0px, 0px, 0px);"><defs><clipPath id="_lottie_element_75"><rect width="226" height="226" x="0" y="0"></rect></clipPath></defs><g clip-path="url(#_lottie_element_75)"><g transform="matrix(0,0,0,0,112.9520034790039,112.9280014038086)" opacity="1" style="display: block;"><g opacity="1" transform="matrix(1,0,0,1,27.101999282836914,27.101999282836914)"><path fill="rgb(255,255,255)" fill-opacity="1" d=" M0,-26.851999282836914 C14.829999923706055,-26.851999282836914 26.851999282836914,-14.829000473022461 26.851999282836914,0.0010000000474974513 C26.851999282836914,14.829999923706055 14.829999923706055,26.851999282836914 0,26.851999282836914 C-14.829999923706055,26.851999282836914 -26.851999282836914,14.829999923706055 -26.851999282836914,0.0010000000474974513 C-26.851999282836914,-14.829000473022461 -14.829999923706055,-26.851999282836914 0,-26.851999282836914z"></path></g><g opacity="1" transform="matrix(1,0,0,1,32.250999450683594,21.41699981689453)"><path stroke-linecap="round" stroke-linejoin="round" fill-opacity="0" stroke="rgb(0,0,0)" stroke-opacity="1" stroke-width="2" d=" M0,2.5 C1.38100004196167,2.5 2.5,1.38100004196167 2.5,0 C2.5,-1.38100004196167 1.38100004196167,-2.5 0,-2.5 C-1.38100004196167,-2.5 -2.5,-1.38100004196167 -2.5,0 C-2.5,1.38100004196167 -1.38100004196167,2.5 0,2.5z"></path></g><g opacity="1" transform="matrix(1,0,0,1,22.250999450683594,27.25)"><path stroke-linecap="round" stroke-linejoin="round" fill-opacity="0" stroke="rgb(0,0,0)" stroke-opacity="1" stroke-width="2" d=" M0,2.5 C1.38100004196167,2.5 2.5,1.38100004196167 2.5,0 C2.5,-1.38100004196167 1.38100004196167,-2.5 0,-2.5 C-1.38100004196167,-2.5 -2.5,-1.38100004196167 -2.5,0 C-2.5,1.38100004196167 -1.38100004196167,2.5 0,2.5z"></path></g><g opacity="1" transform="matrix(1,0,0,1,32.250999450683594,33.08300018310547)"><path stroke-linecap="round" stroke-linejoin="round" fill-opacity="0" stroke="rgb(0,0,0)" stroke-opacity="1" stroke-width="2" d=" M0,2.5 C1.38100004196167,2.5 2.5,1.38100004196167 2.5,0 C2.5,-1.38100004196167 1.38100004196167,-2.5 0,-2.5 C-1.38100004196167,-2.5 -2.5,-1.38100004196167 -2.5,0 C-2.5,1.38100004196167 -1.38100004196167,2.5 0,2.5z"></path></g><g opacity="1" transform="matrix(1,0,0,1,27.2549991607666,30.16699981689453)"><path stroke-linecap="round" stroke-linejoin="round" fill-opacity="0" stroke="rgb(0,0,0)" stroke-opacity="1" stroke-width="2" d=" M-2.8459999561309814,-1.659000039100647 C-2.8459999561309814,-1.659000039100647 2.8459999561309814,1.659000039100647 2.8459999561309814,1.659000039100647"></path></g><g opacity="1" transform="matrix(1,0,0,1,27.250999450683594,24.333999633789062)"><path stroke-linecap="round" stroke-linejoin="round" fill-opacity="0" stroke="rgb(0,0,0)" stroke-opacity="1" stroke-width="2" d=" M2.8420000076293945,-1.659000039100647 C2.8420000076293945,-1.659000039100647 -2.8420000076293945,1.659000039100647 -2.8420000076293945,1.659000039100647"></path></g></g><g style="display: block;" transform="matrix(0,0,0,0,112.9520034790039,112.9280014038086)" opacity="1"><g opacity="1" transform="matrix(1,0,0,1,27.101999282836914,27.101999282836914)"><path fill="rgb(255,255,255)" fill-opacity="1" d=" M0,-26.851999282836914 C14.829999923706055,-26.851999282836914 26.851999282836914,-14.829000473022461 26.851999282836914,0.0010000000474974513 C26.851999282836914,14.829999923706055 14.829999923706055,26.851999282836914 0,26.851999282836914 C-14.829999923706055,26.851999282836914 -26.851999282836914,14.829999923706055 -26.851999282836914,0.0010000000474974513 C-26.851999282836914,-14.829000473022461 -14.829999923706055,-26.851999282836914 0,-26.851999282836914z"></path></g><g opacity="1" transform="matrix(1,0,0,1,27.101999282836914,26.746000289916992)"><path fill="rgb(0,0,0)" fill-opacity="1" d=" M-0.7480000257492065,6.806000232696533 C1.8220000267028809,6.360000133514404 3.944000005722046,5.989999771118164 3.9690001010894775,5.985000133514404 C3.9690001010894775,5.985000133514404 4.013000011444092,5.97599983215332 4.013000011444092,5.97599983215332 C4.013000011444092,5.97599983215332 1.5870000123977661,3.138000011444092 1.5870000123977661,3.138000011444092 C0.2529999911785126,1.5770000219345093 -0.8389999866485596,0.2930000126361847 -0.8389999866485596,0.28600001335144043 C-0.8389999866485596,0.2720000147819519 1.6660000085830688,-6.513000011444092 1.6799999475479126,-6.538000106811523 C1.684999942779541,-6.546000003814697 3.390000104904175,-3.6510000228881836 5.813000202178955,0.47999998927116394 C8.081000328063965,4.3470001220703125 9.951000213623047,7.535999774932861 9.968000411987305,7.565999984741211 C9.968000411987305,7.565999984741211 10,7.619999885559082 10,7.619999885559082 C10,7.619999885559082 2.2899999618530273,7.61899995803833 2.2899999618530273,7.61899995803833 C2.2899999618530273,7.61899995803833 -5.419000148773193,7.618000030517578 -5.419000148773193,7.618000030517578 C-5.419000148773193,7.618000030517578 -0.7480000257492065,6.806000232696533 -0.7480000257492065,6.806000232696533z M-10,5.940999984741211 C-10,5.936999797821045 -8.857000350952148,3.984999895095825 -7.460000038146973,1.6030000448226929 C-7.460000038146973,1.6030000448226929 -4.920000076293945,-2.7269999980926514 -4.920000076293945,-2.7269999980926514 C-4.920000076293945,-2.7269999980926514 -1.9589999914169312,-5.170000076293945 -1.9589999914169312,-5.170000076293945 C-0.3310000002384186,-6.513999938964844 1.0049999952316284,-7.616000175476074 1.0110000371932983,-7.618000030517578 C1.0160000324249268,-7.619999885559082 0.9950000047683716,-7.566999912261963 0.9629999995231628,-7.5 C0.9309999942779541,-7.433000087738037 -0.5149999856948853,-4.38100004196167 -2.250999927520752,-0.7179999947547913 C-2.250999927520752,-0.7179999947547913 -5.408999919891357,5.941999912261963 -5.408999919891357,5.941999912261963 C-5.408999919891357,5.941999912261963 -7.703999996185303,5.945000171661377 -7.703999996185303,5.945000171661377 C-8.967000007629395,5.947000026702881 -10,5.945000171661377 -10,5.940999984741211z"></path></g></g><g style="display: block;" transform="matrix(0,0,0,0,112.95099639892578,112.92900085449219)" opacity="1"><g opacity="1" transform="matrix(1,0,0,1,27.10099983215332,27.101999282836914)"><path fill="rgb(255,255,255)" fill-opacity="1" d=" M26.851999282836914,0 C26.851999282836914,14.829999923706055 14.829999923706055,26.851999282836914 0,26.851999282836914 C-14.829000473022461,26.851999282836914 -26.85099983215332,14.829999923706055 -26.85099983215332,0 C-26.85099983215332,-14.829999923706055 -14.829000473022461,-26.851999282836914 0,-26.851999282836914 C14.829999923706055,-26.851999282836914 26.851999282836914,-14.829999923706055 26.851999282836914,0z"></path></g><g opacity="1" transform="matrix(1,0,0,1,26.95199966430664,27.250999450683594)"><path stroke-linecap="round" stroke-linejoin="round" fill-opacity="0" stroke="rgb(0,0,0)" stroke-opacity="1" stroke-width="2" d=" M5.000999927520752,-6.666999816894531 C5.000999927520752,-6.666999816894531 -4.999000072479248,-6.666999816894531 -4.999000072479248,-6.666999816894531 C-5.920000076293945,-6.666999816894531 -6.666999816894531,-5.921000003814697 -6.666999816894531,-5 C-6.666999816894531,-5 -6.666999816894531,5 -6.666999816894531,5 C-6.666999816894531,5.920000076293945 -5.920000076293945,6.666999816894531 -4.999000072479248,6.666999816894531 C-4.999000072479248,6.666999816894531 5.000999927520752,6.666999816894531 5.000999927520752,6.666999816894531 C5.921000003814697,6.666999816894531 6.666999816894531,5.920000076293945 6.666999816894531,5 C6.666999816894531,5 6.666999816894531,-5 6.666999816894531,-5 C6.666999816894531,-5.921000003814697 5.921000003814697,-6.666999816894531 5.000999927520752,-6.666999816894531z"></path></g><g opacity="1" transform="matrix(1,0,0,1,26.95199966430664,27.250999450683594)"><path stroke-linecap="round" stroke-linejoin="round" fill-opacity="0" stroke="rgb(0,0,0)" stroke-opacity="1" stroke-width="2" d=" M2.5,-2.5 C2.5,-2.5 -2.5,-2.5 -2.5,-2.5 C-2.5,-2.5 -2.5,2.5 -2.5,2.5 C-2.5,2.5 2.5,2.5 2.5,2.5 C2.5,2.5 2.5,-2.5 2.5,-2.5z"></path></g><g opacity="1" transform="matrix(1,0,0,1,0,0)"><path stroke-linecap="round" stroke-linejoin="round" fill-opacity="0" stroke="rgb(0,0,0)" stroke-opacity="1" stroke-width="2" d=" M24.45199966430664,18.083999633789062 C24.45199966430664,18.083999633789062 24.45199966430664,20.583999633789062 24.45199966430664,20.583999633789062"></path></g><g opacity="1" transform="matrix(1,0,0,1,0,0)"><path stroke-linecap="round" stroke-linejoin="round" fill-opacity="0" stroke="rgb(0,0,0)" stroke-opacity="1" stroke-width="2" d=" M29.45199966430664,18.083999633789062 C29.45199966430664,18.083999633789062 29.45199966430664,20.583999633789062 29.45199966430664,20.583999633789062"></path></g><g opacity="1" transform="matrix(1,0,0,1,0,0)"><path stroke-linecap="round" stroke-linejoin="round" fill-opacity="0" stroke="rgb(0,0,0)" stroke-opacity="1" stroke-width="2" d=" M24.45199966430664,33.917999267578125 C24.45199966430664,33.917999267578125 24.45199966430664,36.417999267578125 24.45199966430664,36.417999267578125"></path></g><g opacity="1" transform="matrix(1,0,0,1,0,0)"><path stroke-linecap="round" stroke-linejoin="round" fill-opacity="0" stroke="rgb(0,0,0)" stroke-opacity="1" stroke-width="2" d=" M29.45199966430664,33.917999267578125 C29.45199966430664,33.917999267578125 29.45199966430664,36.417999267578125 29.45199966430664,36.417999267578125"></path></g><g opacity="1" transform="matrix(1,0,0,1,0,0)"><path stroke-linecap="round" stroke-linejoin="round" fill-opacity="0" stroke="rgb(0,0,0)" stroke-opacity="1" stroke-width="2" d=" M33.619998931884766,24.750999450683594 C33.619998931884766,24.750999450683594 36.119998931884766,24.750999450683594 36.119998931884766,24.750999450683594"></path></g><g opacity="1" transform="matrix(1,0,0,1,0,0)"><path stroke-linecap="round" stroke-linejoin="round" fill-opacity="0" stroke="rgb(0,0,0)" stroke-opacity="1" stroke-width="2" d=" M33.619998931884766,28.917999267578125 C33.619998931884766,28.917999267578125 36.119998931884766,28.917999267578125 36.119998931884766,28.917999267578125"></path></g><g opacity="1" transform="matrix(1,0,0,1,0,0)"><path stroke-linecap="round" stroke-linejoin="round" fill-opacity="0" stroke="rgb(0,0,0)" stroke-opacity="1" stroke-width="2" d=" M17.78499984741211,24.750999450683594 C17.78499984741211,24.750999450683594 20.28499984741211,24.750999450683594 20.28499984741211,24.750999450683594"></path></g><g opacity="1" transform="matrix(1,0,0,1,0,0)"><path stroke-linecap="round" stroke-linejoin="round" fill-opacity="0" stroke="rgb(0,0,0)" stroke-opacity="1" stroke-width="2" d=" M17.78499984741211,28.917999267578125 C17.78499984741211,28.917999267578125 20.28499984741211,28.917999267578125 20.28499984741211,28.917999267578125"></path></g></g><g style="display: block;" transform="matrix(0,0,0,0,112.9520034790039,112.9280014038086)" opacity="1"><g opacity="1" transform="matrix(1,0,0,1,27.101999282836914,27.10099983215332)"><path fill="rgb(255,255,255)" fill-opacity="1" d=" M0,-26.851999282836914 C14.829999923706055,-26.851999282836914 26.851999282836914,-14.829000473022461 26.851999282836914,0.0010000000474974513 C26.851999282836914,14.829999923706055 14.829999923706055,26.851999282836914 0,26.851999282836914 C-14.829999923706055,26.851999282836914 -26.851999282836914,14.829999923706055 -26.851999282836914,0.0010000000474974513 C-26.851999282836914,-14.829000473022461 -14.829999923706055,-26.851999282836914 0,-26.851999282836914z"></path></g><g opacity="1" transform="matrix(1,0,0,1,27.076000213623047,27.101999282836914)"><path fill="rgb(0,0,0)" fill-opacity="1" d=" M-6.666999816894531,-7.333000183105469 C-7.035999774932861,-7.333000183105469 -7.334000110626221,-7.035999774932861 -7.334000110626221,-6.666999816894531 C-7.334000110626221,-6.666999816894531 -7.334000110626221,-3.3329999446868896 -7.334000110626221,-3.3329999446868896 C-7.334000110626221,-2.9649999141693115 -7.035999774932861,-2.6670000553131104 -6.666999816894531,-2.6670000553131104 C-6.666999816894531,-2.6670000553131104 6.666999816894531,-2.6670000553131104 6.666999816894531,-2.6670000553131104 C7.034999847412109,-2.6670000553131104 7.334000110626221,-2.9649999141693115 7.334000110626221,-3.3329999446868896 C7.334000110626221,-3.3329999446868896 7.334000110626221,-6.666999816894531 7.334000110626221,-6.666999816894531 C7.334000110626221,-7.035999774932861 7.034999847412109,-7.333000183105469 6.666999816894531,-7.333000183105469 C6.666999816894531,-7.333000183105469 -6.666999816894531,-7.333000183105469 -6.666999816894531,-7.333000183105469z M-9.333999633789062,-6.666999816894531 C-9.333999633789062,-8.140000343322754 -8.140000343322754,-9.333000183105469 -6.666999816894531,-9.333000183105469 C-6.666999816894531,-9.333000183105469 6.666999816894531,-9.333000183105469 6.666999816894531,-9.333000183105469 C8.140000343322754,-9.333000183105469 9.333999633789062,-8.140000343322754 9.333999633789062,-6.666999816894531 C9.333999633789062,-6.666999816894531 9.333999633789062,-3.3329999446868896 9.333999633789062,-3.3329999446868896 C9.333999633789062,-1.8600000143051147 8.140000343322754,-0.6669999957084656 6.666999816894531,-0.6669999957084656 C6.666999816894531,-0.6669999957084656 -6.666999816894531,-0.6669999957084656 -6.666999816894531,-0.6669999957084656 C-8.140000343322754,-0.6669999957084656 -9.333999633789062,-1.8600000143051147 -9.333999633789062,-3.3329999446868896 C-9.333999633789062,-3.3329999446868896 -9.333999633789062,-6.666999816894531 -9.333999633789062,-6.666999816894531z M-6.000999927520752,-5.000999927520752 C-6.000999927520752,-5.552999973297119 -5.552999973297119,-6.000999927520752 -5.000999927520752,-6.000999927520752 C-5.000999927520752,-6.000999927520752 -4.992000102996826,-6.000999927520752 -4.992000102996826,-6.000999927520752 C-4.440000057220459,-6.000999927520752 -3.992000102996826,-5.552999973297119 -3.992000102996826,-5.000999927520752 C-3.992000102996826,-4.447999954223633 -4.440000057220459,-4.000999927520752 -4.992000102996826,-4.000999927520752 C-4.992000102996826,-4.000999927520752 -5.000999927520752,-4.000999927520752 -5.000999927520752,-4.000999927520752 C-5.552999973297119,-4.000999927520752 -6.000999927520752,-4.447999954223633 -6.000999927520752,-5.000999927520752z M-6.666999816894531,2.6670000553131104 C-7.035999774932861,2.6670000553131104 -7.334000110626221,2.9639999866485596 -7.334000110626221,3.3329999446868896 C-7.334000110626221,3.3329999446868896 -7.334000110626221,6.666999816894531 -7.334000110626221,6.666999816894531 C-7.334000110626221,7.034999847412109 -7.035999774932861,7.333000183105469 -6.666999816894531,7.333000183105469 C-6.666999816894531,7.333000183105469 6.666999816894531,7.333000183105469 6.666999816894531,7.333000183105469 C7.034999847412109,7.333000183105469 7.334000110626221,7.034999847412109 7.334000110626221,6.666999816894531 C7.334000110626221,6.666999816894531 7.334000110626221,3.3329999446868896 7.334000110626221,3.3329999446868896 C7.334000110626221,2.9639999866485596 7.034999847412109,2.6670000553131104 6.666999816894531,2.6670000553131104 C6.666999816894531,2.6670000553131104 -6.666999816894531,2.6670000553131104 -6.666999816894531,2.6670000553131104z M-9.333999633789062,3.3329999446868896 C-9.333999633789062,1.8600000143051147 -8.140000343322754,0.6669999957084656 -6.666999816894531,0.6669999957084656 C-6.666999816894531,0.6669999957084656 6.666999816894531,0.6669999957084656 6.666999816894531,0.6669999957084656 C8.140000343322754,0.6669999957084656 9.333999633789062,1.8600000143051147 9.333999633789062,3.3329999446868896 C9.333999633789062,3.3329999446868896 9.333999633789062,6.666999816894531 9.333999633789062,6.666999816894531 C9.333999633789062,8.140000343322754 8.140000343322754,9.333000183105469 6.666999816894531,9.333000183105469 C6.666999816894531,9.333000183105469 -6.666999816894531,9.333000183105469 -6.666999816894531,9.333000183105469 C-8.140000343322754,9.333000183105469 -9.333999633789062,8.140000343322754 -9.333999633789062,6.666999816894531 C-9.333999633789062,6.666999816894531 -9.333999633789062,3.3329999446868896 -9.333999633789062,3.3329999446868896z M-6.000999927520752,4.999000072479248 C-6.000999927520752,4.447000026702881 -5.552999973297119,3.999000072479248 -5.000999927520752,3.999000072479248 C-5.000999927520752,3.999000072479248 -4.992000102996826,3.999000072479248 -4.992000102996826,3.999000072479248 C-4.440000057220459,3.999000072479248 -3.992000102996826,4.447000026702881 -3.992000102996826,4.999000072479248 C-3.992000102996826,5.552000045776367 -4.440000057220459,5.999000072479248 -4.992000102996826,5.999000072479248 C-4.992000102996826,5.999000072479248 -5.000999927520752,5.999000072479248 -5.000999927520752,5.999000072479248 C-5.552999973297119,5.999000072479248 -6.000999927520752,5.552000045776367 -6.000999927520752,4.999000072479248z"></path></g></g><g style="display: block;" transform="matrix(0,0,0,0,112.9520034790039,112.9280014038086)" opacity="1"><g opacity="1" transform="matrix(1,0,0,1,27.101999282836914,27.10099983215332)"><path fill="rgb(255,255,255)" fill-opacity="1" d=" M0,-26.851999282836914 C14.829999923706055,-26.851999282836914 26.851999282836914,-14.829000473022461 26.851999282836914,0.0010000000474974513 C26.851999282836914,14.829999923706055 14.829999923706055,26.851999282836914 0,26.851999282836914 C-14.829999923706055,26.851999282836914 -26.851999282836914,14.829999923706055 -26.851999282836914,0.0010000000474974513 C-26.851999282836914,-14.829000473022461 -14.829999923706055,-26.851999282836914 0,-26.851999282836914z"></path></g><g opacity="1" transform="matrix(1,0,0,1,27.25,27.249000549316406)"><path stroke-linecap="round" stroke-linejoin="round" fill-opacity="0" stroke="rgb(0,0,0)" stroke-opacity="1" stroke-width="2" d=" M1.6670000553131104,-8.333000183105469 C1.6670000553131104,-8.333000183105469 -4.999000072479248,-8.333000183105469 -4.999000072479248,-8.333000183105469 C-5.440999984741211,-8.333000183105469 -5.864999771118164,-8.157999992370605 -6.177999973297119,-7.84499979019165 C-6.489999771118164,-7.5329999923706055 -6.666999816894531,-7.109000205993652 -6.666999816894531,-6.666999816894531 C-6.666999816894531,-6.666999816894531 -6.666999816894531,6.666999816894531 -6.666999816894531,6.666999816894531 C-6.666999816894531,7.109000205993652 -6.489999771118164,7.5329999923706055 -6.177999973297119,7.84499979019165 C-5.864999771118164,8.157999992370605 -5.440999984741211,8.333000183105469 -4.999000072479248,8.333000183105469 C-4.999000072479248,8.333000183105469 5.000999927520752,8.333000183105469 5.000999927520752,8.333000183105469 C5.442999839782715,8.333000183105469 5.866000175476074,8.157999992370605 6.177999973297119,7.84499979019165 C6.491000175476074,7.5329999923706055 6.666999816894531,7.109000205993652 6.666999816894531,6.666999816894531 C6.666999816894531,6.666999816894531 6.666999816894531,-3.3329999446868896 6.666999816894531,-3.3329999446868896 C6.666999816894531,-3.3329999446868896 1.6670000553131104,-8.333000183105469 1.6670000553131104,-8.333000183105469z"></path></g><g opacity="1" transform="matrix(1,0,0,1,31.417999267578125,21.416000366210938)"><path stroke-linecap="round" stroke-linejoin="round" fill-opacity="0" stroke="rgb(0,0,0)" stroke-opacity="1" stroke-width="2" d=" M-2.5,-2.5 C-2.5,-2.5 -2.5,2.5 -2.5,2.5 C-2.5,2.5 2.5,2.5 2.5,2.5"></path></g><g opacity="1" transform="matrix(1,0,0,1,0,0)"><path stroke-linecap="round" stroke-linejoin="round" fill-opacity="0" stroke="rgb(0,0,0)" stroke-opacity="1" stroke-width="2" d=" M30.584999084472656,28.08300018310547 C30.584999084472656,28.08300018310547 23.917999267578125,28.08300018310547 23.917999267578125,28.08300018310547"></path></g><g opacity="1" transform="matrix(1,0,0,1,0,0)"><path stroke-linecap="round" stroke-linejoin="round" fill-opacity="0" stroke="rgb(0,0,0)" stroke-opacity="1" stroke-width="2" d=" M30.584999084472656,31.41699981689453 C30.584999084472656,31.41699981689453 23.917999267578125,31.41699981689453 23.917999267578125,31.41699981689453"></path></g><g opacity="1" transform="matrix(1,0,0,1,0,0)"><path stroke-linecap="round" stroke-linejoin="round" fill-opacity="0" stroke="rgb(0,0,0)" stroke-opacity="1" stroke-width="2" d=" M25.584999084472656,24.749000549316406 C25.584999084472656,24.749000549316406 24.750999450683594,24.749000549316406 24.750999450683594,24.749000549316406 C24.750999450683594,24.749000549316406 23.917999267578125,24.749000549316406 23.917999267578125,24.749000549316406"></path></g></g><g style="display: block;" transform="matrix(0,0,0,0,112.9520034790039,112.9280014038086)" opacity="1"><g opacity="1" transform="matrix(1,0,0,1,27.101999282836914,27.10099983215332)"><path fill="rgb(255,255,255)" fill-opacity="1" d=" M0,-26.851999282836914 C14.829999923706055,-26.851999282836914 26.851999282836914,-14.829000473022461 26.851999282836914,0.0010000000474974513 C26.851999282836914,14.829999923706055 14.829999923706055,26.851999282836914 0,26.851999282836914 C-14.829999923706055,26.851999282836914 -26.851999282836914,14.829999923706055 -26.851999282836914,0.0010000000474974513 C-26.851999282836914,-14.829000473022461 -14.829999923706055,-26.851999282836914 0,-26.851999282836914z"></path></g><g opacity="1" transform="matrix(1,0,0,1,27.101999282836914,27.128000259399414)"><path stroke-linecap="round" stroke-linejoin="round" fill-opacity="0" stroke="rgb(0,0,0)" stroke-opacity="1" stroke-width="2" d=" M0,2.5 C1.38100004196167,2.5 2.5,1.38100004196167 2.5,0 C2.5,-1.38100004196167 1.38100004196167,-2.5 0,-2.5 C-1.38100004196167,-2.5 -2.5,-1.38100004196167 -2.5,0 C-2.5,1.38100004196167 -1.38100004196167,2.5 0,2.5z"></path></g><g opacity="1" transform="matrix(1,0,0,1,27.101999282836914,27.128000259399414)"><path stroke-linecap="round" stroke-linejoin="round" fill-opacity="0" stroke="rgb(0,0,0)" stroke-opacity="1" stroke-width="2" d=" M6.166999816894531,2.5 C6.056000232696533,2.750999927520752 6.0229997634887695,3.0299999713897705 6.072000026702881,3.299999952316284 C6.120999813079834,3.571000099182129 6.249000072479248,3.819999933242798 6.440999984741211,4.017000198364258 C6.440999984741211,4.017000198364258 6.492000102996826,4.066999912261963 6.492000102996826,4.066999912261963 C6.646999835968018,4.2210001945495605 6.769999980926514,4.40500020980835 6.854000091552734,4.607999801635742 C6.938000202178955,4.809999942779541 6.980000019073486,5.0269999504089355 6.980000019073486,5.245999813079834 C6.980000019073486,5.465000152587891 6.938000202178955,5.682000160217285 6.854000091552734,5.883999824523926 C6.769999980926514,6.085999965667725 6.646999835968018,6.269999980926514 6.492000102996826,6.425000190734863 C6.336999893188477,6.579999923706055 6.1529998779296875,6.703000068664551 5.951000213623047,6.7870001792907715 C5.749000072479248,6.870999813079834 5.531000137329102,6.914000034332275 5.311999797821045,6.914000034332275 C5.0929999351501465,6.914000034332275 4.875999927520752,6.870999813079834 4.673999786376953,6.7870001792907715 C4.4710001945495605,6.703000068664551 4.2870001792907715,6.579999923706055 4.132999897003174,6.425000190734863 C4.132999897003174,6.425000190734863 4.083000183105469,6.375 4.083000183105469,6.375 C3.885999917984009,6.183000087738037 3.63700008392334,6.053999900817871 3.367000102996826,6.005000114440918 C3.0959999561309814,5.955999851226807 2.816999912261963,5.988999843597412 2.565999984741211,6.099999904632568 C2.319999933242798,6.205999851226807 2.109999895095825,6.38100004196167 1.9620000123977661,6.605000019073486 C1.8140000104904175,6.828000068664551 1.7350000143051147,7.090000152587891 1.7339999675750732,7.357999801635742 C1.7339999675750732,7.357999801635742 1.7339999675750732,7.5 1.7339999675750732,7.5 C1.7339999675750732,7.941999912261963 1.5570000410079956,8.366000175476074 1.2450000047683716,8.678000450134277 C0.9319999814033508,8.991000175476074 0.5080000162124634,9.166999816894531 0.06599999964237213,9.166999816894531 C-0.37599998712539673,9.166999816894531 -0.800000011920929,8.991000175476074 -1.1130000352859497,8.678000450134277 C-1.4249999523162842,8.366000175476074 -1.6009999513626099,7.941999912261963 -1.6009999513626099,7.5 C-1.6009999513626099,7.5 -1.6009999513626099,7.425000190734863 -1.6009999513626099,7.425000190734863 C-1.6069999933242798,7.14900016784668 -1.6959999799728394,6.881999969482422 -1.8569999933242798,6.6570000648498535 C-2.0169999599456787,6.433000087738037 -2.242000102996826,6.26200008392334 -2.500999927520752,6.166999816894531 C-2.752000093460083,6.056000232696533 -3.0309998989105225,6.0229997634887695 -3.3010001182556152,6.072000026702881 C-3.571000099182129,6.120999813079834 -3.821000099182129,6.249000072479248 -4.017000198364258,6.441999912261963 C-4.017000198364258,6.441999912261963 -4.065999984741211,6.492000102996826 -4.065999984741211,6.492000102996826 C-4.2210001945495605,6.646999835968018 -4.40500020980835,6.769000053405762 -4.60699987411499,6.853000164031982 C-4.809999942779541,6.936999797821045 -5.0269999504089355,6.980000019073486 -5.247000217437744,6.980000019073486 C-5.466000080108643,6.980000019073486 -5.682000160217285,6.936999797821045 -5.885000228881836,6.853000164031982 C-6.086999893188477,6.769000053405762 -6.270999908447266,6.646999835968018 -6.426000118255615,6.492000102996826 C-6.580999851226807,6.336999893188477 -6.703000068664551,6.1529998779296875 -6.785999774932861,5.951000213623047 C-6.869999885559082,5.748000144958496 -6.913000106811523,5.531000137329102 -6.913000106811523,5.311999797821045 C-6.913000106811523,5.0929999351501465 -6.869999885559082,4.876999855041504 -6.785999774932861,4.673999786376953 C-6.703000068664551,4.4720001220703125 -6.580999851226807,4.288000106811523 -6.426000118255615,4.132999897003174 C-6.426000118255615,4.132999897003174 -6.375999927520752,4.083000183105469 -6.375999927520752,4.083000183105469 C-6.184000015258789,3.88700008392334 -6.054999828338623,3.63700008392334 -6.00600004196167,3.367000102996826 C-5.956999778747559,3.0969998836517334 -5.989999771118164,2.818000078201294 -6.10099983215332,2.566999912261963 C-6.205999851226807,2.319999933242798 -6.381999969482422,2.109999895095825 -6.605000019073486,1.9620000123977661 C-6.828999996185303,1.8140000104904175 -7.091000080108643,1.7339999675750732 -7.359000205993652,1.7330000400543213 C-7.359000205993652,1.7330000400543213 -7.500999927520752,1.7330000400543213 -7.500999927520752,1.7330000400543213 C-7.942999839782715,1.7330000400543213 -8.366000175476074,1.5579999685287476 -8.678000450134277,1.2450000047683716 C-8.991000175476074,0.9330000281333923 -9.166999816894531,0.5090000033378601 -9.166999816894531,0.06700000166893005 C-9.166999816894531,-0.375 -8.991000175476074,-0.7990000247955322 -8.678000450134277,-1.1119999885559082 C-8.366000175476074,-1.4240000247955322 -7.942999839782715,-1.600000023841858 -7.500999927520752,-1.600000023841858 C-7.500999927520752,-1.600000023841858 -7.426000118255615,-1.600000023841858 -7.426000118255615,-1.600000023841858 C-7.150000095367432,-1.6069999933242798 -6.881999969482422,-1.6959999799728394 -6.6579999923706055,-1.8559999465942383 C-6.434000015258789,-2.0169999599456787 -6.26200008392334,-2.240999937057495 -6.166999816894531,-2.5 C-6.056000232696533,-2.750999927520752 -6.0229997634887695,-3.0299999713897705 -6.072000026702881,-3.3010001182556152 C-6.120999813079834,-3.571000099182129 -6.249000072479248,-3.819999933242798 -6.440999984741211,-4.017000198364258 C-6.440999984741211,-4.017000198364258 -6.492000102996826,-4.066999912261963 -6.492000102996826,-4.066999912261963 C-6.646999835968018,-4.2220001220703125 -6.769999980926514,-4.40500020980835 -6.854000091552734,-4.607999801635742 C-6.938000202178955,-4.809999942779541 -6.980000019073486,-5.0269999504089355 -6.980000019073486,-5.245999813079834 C-6.980000019073486,-5.465000152587891 -6.938000202178955,-5.682000160217285 -6.854000091552734,-5.883999824523926 C-6.769999980926514,-6.085999965667725 -6.646999835968018,-6.269999980926514 -6.492000102996826,-6.425000190734863 C-6.3379998207092285,-6.579999923706055 -6.1539998054504395,-6.703000068664551 -5.951000213623047,-6.7870001792907715 C-5.749000072479248,-6.870999813079834 -5.531000137329102,-6.914000034332275 -5.311999797821045,-6.914000034332275 C-5.0929999351501465,-6.914000034332275 -4.875999927520752,-6.870999813079834 -4.673999786376953,-6.7870001792907715 C-4.4720001220703125,-6.703000068664551 -4.288000106811523,-6.579999923706055 -4.132999897003174,-6.425000190734863 C-4.132999897003174,-6.425000190734863 -4.083000183105469,-6.375 -4.083000183105469,-6.375 C-3.88700008392334,-6.183000087738037 -3.638000011444092,-6.053999900817871 -3.368000030517578,-6.005000114440918 C-3.0980000495910645,-5.955999851226807 -2.818000078201294,-5.988999843597412 -2.565999984741211,-6.099999904632568 C-2.565999984741211,-6.099999904632568 -2.500999927520752,-6.099999904632568 -2.500999927520752,-6.099999904632568 C-2.253999948501587,-6.205999851226807 -2.0439999103546143,-6.38100004196167 -1.8960000276565552,-6.605000019073486 C-1.7480000257492065,-6.828000068664551 -1.6679999828338623,-7.090000152587891 -1.6670000553131104,-7.357999801635742 C-1.6670000553131104,-7.357999801635742 -1.6670000553131104,-7.5 -1.6670000553131104,-7.5 C-1.6670000553131104,-7.941999912261963 -1.4910000562667847,-8.366000175476074 -1.1779999732971191,-8.678999900817871 C-0.8659999966621399,-8.991000175476074 -0.4429999887943268,-9.166999816894531 -0.0010000000474974513,-9.166999816894531 C0.4410000145435333,-9.166999816894531 0.8650000095367432,-8.991000175476074 1.1779999732971191,-8.678999900817871 C1.4900000095367432,-8.366000175476074 1.6670000553131104,-7.941999912261963 1.6670000553131104,-7.5 C1.6670000553131104,-7.5 1.6670000553131104,-7.425000190734863 1.6670000553131104,-7.425000190734863 C1.6679999828338623,-7.1570000648498535 1.7480000257492065,-6.894999980926514 1.8960000276565552,-6.671000003814697 C2.0439999103546143,-6.447999954223633 2.253000020980835,-6.271999835968018 2.499000072479248,-6.166999816894531 C2.750999927520752,-6.056000232696533 3.0299999713897705,-6.0229997634887695 3.3010001182556152,-6.072000026702881 C3.571000099182129,-6.120999813079834 3.819999933242798,-6.25 4.015999794006348,-6.441999912261963 C4.015999794006348,-6.441999912261963 4.065999984741211,-6.492000102996826 4.065999984741211,-6.492000102996826 C4.2210001945495605,-6.646999835968018 4.40500020980835,-6.769999980926514 4.60699987411499,-6.854000091552734 C4.809000015258789,-6.936999797821045 5.026000022888184,-6.980999946594238 5.244999885559082,-6.980999946594238 C5.464000225067139,-6.980999946594238 5.681000232696533,-6.936999797821045 5.882999897003174,-6.854000091552734 C6.085999965667725,-6.769999980926514 6.269999980926514,-6.646999835968018 6.423999786376953,-6.492000102996826 C6.578999996185303,-6.336999893188477 6.702000141143799,-6.1529998779296875 6.785999774932861,-5.951000213623047 C6.869999885559082,-5.748000144958496 6.913000106811523,-5.5320000648498535 6.913000106811523,-5.313000202178955 C6.913000106811523,-5.093999862670898 6.869999885559082,-4.876999855041504 6.785999774932861,-4.673999786376953 C6.702000141143799,-4.4720001220703125 6.578999996185303,-4.288000106811523 6.423999786376953,-4.132999897003174 C6.423999786376953,-4.132999897003174 6.374000072479248,-4.083000183105469 6.374000072479248,-4.083000183105469 C6.182000160217285,-3.88700008392334 6.053999900817871,-3.638000011444092 6.005000114440918,-3.367000102996826 C5.955999851226807,-3.0969998836517334 5.988999843597412,-2.818000078201294 6.099999904632568,-2.566999912261963 C6.099999904632568,-2.566999912261963 6.099999904632568,-2.5 6.099999904632568,-2.5 C6.205999851226807,-2.253999948501587 6.380000114440918,-2.0429999828338623 6.604000091552734,-1.8949999809265137 C6.828000068664551,-1.746999979019165 7.091000080108643,-1.6679999828338623 7.359000205993652,-1.6670000553131104 C7.359000205993652,-1.6670000553131104 7.499000072479248,-1.6670000553131104 7.499000072479248,-1.6670000553131104 C7.940999984741211,-1.6670000553131104 8.364999771118164,-1.4910000562667847 8.678000450134277,-1.1790000200271606 C8.989999771118164,-0.8659999966621399 9.166999816894531,-0.44200000166893005 9.166999816894531,0 C9.166999816894531,0.44200000166893005 8.989999771118164,0.8659999966621399 8.678000450134277,1.1779999732971191 C8.364999771118164,1.4910000562667847 7.940999984741211,1.6670000553131104 7.499000072479248,1.6670000553131104 C7.499000072479248,1.6670000553131104 7.423999786376953,1.6670000553131104 7.423999786376953,1.6670000553131104 C7.156000137329102,1.6679999828338623 6.894000053405762,1.746999979019165 6.671000003814697,1.8949999809265137 C6.447000026702881,2.0429999828338623 6.2729997634887695,2.253000020980835 6.166999816894531,2.5z"></path></g></g><g style="display: block;" transform="matrix(0,0,0,0,112.95099639892578,112.92900085449219)" opacity="1"><g opacity="1" transform="matrix(1,0,0,1,27.10099983215332,27.10099983215332)"><path fill="rgb(255,255,255)" fill-opacity="1" d=" M26.851999282836914,-0.0010000000474974513 C26.851999282836914,14.829000473022461 14.829000473022461,26.851999282836914 -0.0010000000474974513,26.851999282836914 C-14.829999923706055,26.851999282836914 -26.851999282836914,14.829000473022461 -26.851999282836914,-0.0010000000474974513 C-26.851999282836914,-14.831000328063965 -14.829999923706055,-26.851999282836914 -0.0010000000474974513,-26.851999282836914 C14.829000473022461,-26.851999282836914 26.851999282836914,-14.831000328063965 26.851999282836914,-0.0010000000474974513z"></path></g><g opacity="1" transform="matrix(1,0,0,1,27.25,33.082000732421875)"><path stroke-linecap="round" stroke-linejoin="round" fill-opacity="0" stroke="rgb(0,0,0)" stroke-opacity="1" stroke-width="2" d=" M-3.3329999446868896,-1.6670000553131104 C-3.3329999446868896,-1.6670000553131104 -0.0010000000474974513,1.6670000553131104 -0.0010000000474974513,1.6670000553131104 C-0.0010000000474974513,1.6670000553131104 3.3329999446868896,-1.6670000553131104 3.3329999446868896,-1.6670000553131104"></path></g><g opacity="1" transform="matrix(1,0,0,1,0,0)"><path stroke-linecap="round" stroke-linejoin="round" fill-opacity="0" stroke="rgb(0,0,0)" stroke-opacity="1" stroke-width="2" d=" M27.25,27.249000549316406 C27.25,27.249000549316406 27.25,34.749000549316406 27.25,34.749000549316406"></path></g><g opacity="1" transform="matrix(1,0,0,1,27.24799919128418,26.014999389648438)"><path stroke-linecap="round" stroke-linejoin="round" fill-opacity="0" stroke="rgb(0,0,0)" stroke-opacity="1" stroke-width="2" d=" M7.4019999504089355,6.309000015258789 C8.126999855041504,5.798999786376953 8.670000076293945,5.071000099182129 8.95300006866455,4.23199987411499 C9.236000061035156,3.3929998874664307 9.244999885559082,2.484999895095825 8.97700023651123,1.6410000324249268 C8.710000038146973,0.796999990940094 8.180000305175781,0.061000000685453415 7.465000152587891,-0.4620000123977661 C6.750999927520752,-0.9850000143051147 5.888000011444092,-1.2669999599456787 5.001999855041504,-1.2660000324249268 C5.001999855041504,-1.2660000324249268 3.9519999027252197,-1.2660000324249268 3.9519999027252197,-1.2660000324249268 C3.7009999752044678,-2.243000030517578 3.2320001125335693,-3.1500000953674316 2.5799999237060547,-3.9189999103546143 C1.9290000200271606,-4.689000129699707 1.1100000143051147,-5.301000118255615 0.18799999356269836,-5.708000183105469 C-0.734000027179718,-6.116000175476074 -1.7369999885559082,-6.308000087738037 -2.744999885559082,-6.270999908447266 C-3.753000020980835,-6.235000133514404 -4.738999843597412,-5.9720001220703125 -5.630000114440918,-5.499000072479248 C-6.520999908447266,-5.0269999504089355 -7.293000221252441,-4.357999801635742 -7.888000011444092,-3.5439999103546143 C-8.482999801635742,-2.7300000190734863 -8.885000228881836,-1.7899999618530273 -9.0649995803833,-0.7979999780654907 C-9.244999885559082,0.1940000057220459 -9.197999954223633,1.2139999866485596 -8.925999641418457,2.186000108718872 C-8.654999732971191,3.1570000648498535 -8.166000366210938,4.053999900817871 -7.498000144958496,4.809000015258789"></path></g></g><g style="display: block;" transform="matrix(0,0,0,0,112.9520034790039,112.9280014038086)" opacity="1"><g opacity="1" transform="matrix(1,0,0,1,27.101999282836914,27.101999282836914)"><path fill="rgb(255,255,255)" fill-opacity="1" d=" M0,-26.851999282836914 C14.829999923706055,-26.851999282836914 26.851999282836914,-14.829000473022461 26.851999282836914,0.0010000000474974513 C26.851999282836914,14.829999923706055 14.829999923706055,26.851999282836914 0,26.851999282836914 C-14.829999923706055,26.851999282836914 -26.851999282836914,14.829999923706055 -26.851999282836914,0.0010000000474974513 C-26.851999282836914,-14.829000473022461 -14.829999923706055,-26.851999282836914 0,-26.851999282836914z"></path></g><g opacity="1" transform="matrix(1,0,0,1,27.076000213623047,30.851999282836914)"><path stroke-linecap="round" stroke-linejoin="round" fill-opacity="0" stroke="rgb(0,0,0)" stroke-opacity="1" stroke-width="2" d=" M5.833000183105469,-4.584000110626221 C5.833000183105469,-4.584000110626221 -5.834000110626221,-4.584000110626221 -5.834000110626221,-4.584000110626221 C-6.754000186920166,-4.584000110626221 -7.5,-3.8380000591278076 -7.5,-2.9170000553131104 C-7.5,-2.9170000553131104 -7.5,2.9170000553131104 -7.5,2.9170000553131104 C-7.5,3.8380000591278076 -6.754000186920166,4.584000110626221 -5.834000110626221,4.584000110626221 C-5.834000110626221,4.584000110626221 5.833000183105469,4.584000110626221 5.833000183105469,4.584000110626221 C6.754000186920166,4.584000110626221 7.5,3.8380000591278076 7.5,2.9170000553131104 C7.5,2.9170000553131104 7.5,-2.9170000553131104 7.5,-2.9170000553131104 C7.5,-3.8380000591278076 6.754000186920166,-4.584000110626221 5.833000183105469,-4.584000110626221z"></path></g><g opacity="1" transform="matrix(1,0,0,1,27.075000762939453,22.518999099731445)"><path stroke-linecap="round" stroke-linejoin="round" fill-opacity="0" stroke="rgb(0,0,0)" stroke-opacity="1" stroke-width="2" d=" M-4.166999816894531,3.75 C-4.166999816894531,3.75 -4.166999816894531,0.4169999957084656 -4.166999816894531,0.4169999957084656 C-4.166999816894531,-0.6880000233650208 -3.7279999256134033,-1.7480000257492065 -2.947000026702881,-2.5299999713897705 C-2.1649999618530273,-3.311000108718872 -1.1039999723434448,-3.75 0.0010000000474974513,-3.75 C1.1059999465942383,-3.75 2.1659998893737793,-3.311000108718872 2.947000026702881,-2.5299999713897705 C3.7279999256134033,-1.7480000257492065 4.166999816894531,-0.6880000233650208 4.166999816894531,0.4169999957084656 C4.166999816894531,0.4169999957084656 4.166999816894531,3.75 4.166999816894531,3.75"></path></g></g><g transform="matrix(0,0,0,0,112.625,112.25)" opacity="1" style="display: block;"><g opacity="1" transform="matrix(1.0590900182724,0,0,1.0814900398254395,0.375,0.75)"><path fill="rgb(255,255,255)" fill-opacity="1" d=" M26.375,-23.75 C26.375,-23.75 26.375,23.75 26.375,23.75 C26.375,24.85379981994629 25.47879981994629,25.75 24.375,25.75 C24.375,25.75 -24.375,25.75 -24.375,25.75 C-25.47879981994629,25.75 -26.375,24.85379981994629 -26.375,23.75 C-26.375,23.75 -26.375,-23.75 -26.375,-23.75 C-26.375,-24.85379981994629 -25.47879981994629,-25.75 -24.375,-25.75 C-24.375,-25.75 24.375,-25.75 24.375,-25.75 C25.47879981994629,-25.75 26.375,-24.85379981994629 26.375,-23.75z"></path></g></g><g transform="matrix(0,0,0,0,113,113)" opacity="1" style="display: block;"><g opacity="1" transform="matrix(1,0,0,1,12.75,12.75)"><path fill="rgb(0,0,0)" fill-opacity="1" d=" M-12.5,-10.5 C-12.5,-11.604999542236328 -11.604999542236328,-12.5 -10.5,-12.5 C-10.5,-12.5 12.5,-12.5 12.5,-12.5 C12.5,-12.5 12.5,12.5 12.5,12.5 C12.5,12.5 -12.5,12.5 -12.5,12.5 C-12.5,12.5 -12.5,-10.5 -12.5,-10.5z"></path></g><g opacity="1" transform="matrix(1,0,0,1,41.75,12.75)"><path fill="rgb(0,0,0)" fill-opacity="1" d=" M12.5,-10.5 C12.5,-11.604999542236328 11.604999542236328,-12.5 10.5,-12.5 C10.5,-12.5 -12.5,-12.5 -12.5,-12.5 C-12.5,-12.5 -12.5,12.5 -12.5,12.5 C-12.5,12.5 12.5,12.5 12.5,12.5 C12.5,12.5 12.5,-10.5 12.5,-10.5z"></path></g><g opacity="1" transform="matrix(1,0,0,1,12.75,41.75)"><path fill="rgb(0,0,0)" fill-opacity="1" d=" M-12.5,10.5 C-12.5,11.604999542236328 -11.604999542236328,12.5 -10.5,12.5 C-10.5,12.5 12.5,12.5 12.5,12.5 C12.5,12.5 12.5,-12.5 12.5,-12.5 C12.5,-12.5 -12.5,-12.5 -12.5,-12.5 C-12.5,-12.5 -12.5,10.5 -12.5,10.5z"></path></g><g opacity="1" transform="matrix(1,0,0,1,41.75,41.75)"><path fill="rgb(0,0,0)" fill-opacity="1" d=" M12.5,10.5 C12.5,11.604999542236328 11.604999542236328,12.5 10.5,12.5 C10.5,12.5 -12.5,12.5 -12.5,12.5 C-12.5,12.5 -12.5,-12.5 -12.5,-12.5 C-12.5,-12.5 12.5,-12.5 12.5,-12.5 C12.5,-12.5 12.5,10.5 12.5,10.5z"></path></g></g></g></svg>