<svg width="100%" height="456" viewBox="0 0 802 456" fill="none" xmlns="http://www.w3.org/2000/svg">
<g clip-path="url(#clip0_922_217)">
<rect y="-14" width="920" height="470" fill="black"/>
<path fill-rule="evenodd" clip-rule="evenodd" d="M920 377.065V346.012C887.474 351.522 855.539 360.137 824.688 371.656C823.998 371.957 823.308 372.157 822.717 372.457C822.027 372.758 821.337 372.958 820.549 373.259C817.986 374.261 815.423 375.262 812.959 376.364L822.914 318.966L915.762 321.27L920 325.978V285.109L902.357 265.475L901.076 264.073L878.307 238.63L919.704 198.161L920 198.461V157.892L883.925 118.125L882.644 116.722L863.227 95.3859L897.626 45.501L919.014 63.7321L920 64.6336V28.8727L913.101 22.9627L920 12.9456V-6.28711H899.991L892.205 5.03216L879.096 -6.28711H837.403L876.73 27.4703L844.302 74.4503L770.773 -6.28711H734.108L779.151 43.4976L737.36 81.5624L691.429 30.3753L730.855 -6.28711H697.245L676.152 13.3463L658.607 -6.18694H621.251L656.242 31.978L651.116 36.686L649.736 37.9883L611.493 73.5488L548.511 6.03386C549.299 5.43284 556.889 -1.07824 562.408 -6.18694H505.34C489.865 5.63318 467.885 22.562 442.456 42.6963L416.927 -6.18694H374.742L331.768 18.7555L318.659 -6.08677H292.539L311.759 30.3753L264.843 57.5215L225.811 15.0492L271.052 -6.08677H217.236L162.631 19.4567L148.537 -6.08677H122.121L141.834 29.1732L89.0036 53.8152C79.7386 38.3889 67.0238 16.2513 57.5616 -6.08677L32.7234 -5.9866C42.5798 19.3565 57.3645 45.501 68.108 63.6319L0 95.3859V120.429L80.6257 82.7645C91.0735 97.2892 102.507 109.41 114.926 119.126C120.249 123.434 125.965 127.24 131.879 130.746C118.77 144.169 107.139 158.794 97.0859 174.521C96.6917 175.021 96.396 175.623 96.1003 176.123C96.0017 176.224 95.9032 176.424 95.9032 176.524C88.4123 172.417 80.6257 168.711 72.7405 165.305C45.7339 153.785 14.1933 147.675 0 145.471V166.307C11.7292 168.811 38.8344 175.422 63.9683 186.341C71.0649 189.446 78.063 192.752 84.6668 196.458C78.9501 207.877 74.5147 219.898 71.4592 232.219C65.5453 256.46 65.841 280 72.642 302.238L78.4573 300.535C50.6621 311.854 25.6267 320.669 7.09664 326.78L2.7598 317.965L0.0985644 319.267V366.347C0.295693 366.247 0.492822 366.247 0.591386 366.147L19.2201 404.212L0.0985644 412.125V436.667L29.1751 424.646L44.4525 456H70.1778L50.5635 415.831L122.516 386.181L148.537 430.456L91.0735 456H146.96L160.069 450.19L163.518 456H190.328L181.358 440.774L217.039 424.847C218.911 437.468 221.277 448.086 223.248 456H260.998C257.647 444.881 249.171 412.826 250.156 372.157C250.551 356.43 252.325 340.804 255.577 325.377C261.294 329.284 267.307 333.391 273.319 337.498C289.385 348.417 306.24 359.936 322.207 370.855C317.18 380.672 312.745 390.889 308.999 401.307C301.213 422.743 298.157 441.074 299.636 456H322.996C319.546 434.563 332.556 401.908 341.328 384.077C368.237 402.609 389.921 417.534 396.426 422.242C392.779 432.86 390.512 444.18 390.512 456H413.675C413.773 412.526 454.579 373.259 461.971 366.547L536.092 446.484L525.545 456H576.207L568.618 447.886L583.6 434.363L603.805 456H635.149L600.553 419.037L617.604 403.711L666.887 456.1H734.403C742.387 449.989 752.243 442.877 764.071 435.565C778.067 426.95 792.556 419.237 807.538 412.426C807.538 423.845 807.439 436.967 807.341 449.789V451.893V456.1H838.684C838.684 453.395 838.783 446.183 838.783 437.168V435.665C838.783 430.056 838.881 423.745 838.881 417.534V399.504C845.288 397.099 851.991 394.796 858.89 392.592C858.89 408.018 858.792 432.96 858.594 456.1H889.938C889.938 451.893 890.036 436.567 890.135 420.539V418.636V417.534C890.234 400.505 890.234 390.188 890.135 383.777C899.893 381.072 909.749 378.969 920 377.065ZM891.121 293.623L838.586 292.321H836.713L827.645 292.121L835.53 246.443L835.826 244.74L837.699 234.122L891.121 293.623ZM886.192 161.298L904.23 181.132L862.931 221.501L843.514 199.864L886.192 161.298ZM870.915 144.369L828.335 182.835L790.092 140.262L832.179 101.897L870.915 144.369ZM357.887 158.493C363.308 153.785 368.729 149.178 374.249 144.57L404.902 177.125L388.738 191.55L357.887 158.493ZM371.588 206.776L357.099 219.698L326.051 186.241C330.782 182.033 335.612 177.726 340.54 173.519L371.588 206.776ZM548.215 254.056L526.925 273.389L481.783 225.407L503.467 205.173L548.215 254.056ZM520.321 189.646L542.597 169.011L587.345 218.495L565.168 238.73L520.321 189.646ZM466.111 208.779L437.626 178.527L460.493 158.193L488.091 188.444L466.111 208.779ZM421.954 161.899L391.892 129.845C400.073 123.033 408.254 116.322 416.237 109.71L445.117 141.264L421.954 161.899ZM387.161 223.504L416.533 254.958L402.241 268.28L372.672 236.426L387.161 223.504ZM404.213 208.278L420.476 193.854L449.355 224.506L433.289 239.431L404.213 208.278ZM465.027 241.034L509.972 288.815L493.512 303.841L448.862 256.059L465.027 241.034ZM525.644 305.544L548.314 329.585L531.656 344.71L509.184 320.569L525.644 305.544ZM542.597 290.117L563.591 270.985L585.965 295.426L565.267 314.258L542.597 290.117ZM580.544 255.458L602.623 235.324L624.8 259.866L602.918 279.8L580.544 255.458ZM619.674 219.898L672.111 172.117L694.682 196.258L641.851 244.44L619.674 219.898ZM640.176 276.895L677.827 318.566L656.143 338.099L618.393 296.729L640.176 276.895ZM657.129 261.469L710.255 213.086L748.892 254.457L694.879 303.14L657.129 261.469ZM727.208 197.56L769.985 158.594L808.031 201.066L801.92 206.575L800.54 207.877L765.845 239.03L727.208 197.56ZM794.527 60.4264L816.803 84.868L774.815 123.233L752.736 98.5914L794.527 60.4264ZM726.912 122.131L732.531 117.023L754.609 141.665L748.498 147.174L747.709 147.875L711.635 180.831L689.064 156.69L725.631 123.434L726.912 122.131ZM671.519 49.007L717.253 99.9938L711.733 105.002L710.354 106.305L673.392 139.962L627.067 90.2772L671.519 49.007ZM656.537 155.388L604.298 202.969L559.353 153.284L610.311 105.904L656.537 155.388ZM530.178 19.9576L594.738 89.1754L544.075 136.356L477.446 60.727C498.834 43.8983 517.167 29.8744 530.178 19.9576ZM456.353 77.8561L527.221 151.982L504.847 172.818L433.979 95.3859L456.353 77.8561ZM397.707 6.9354L424.024 57.4213C407.958 70.2431 390.906 84.0667 373.658 98.3911L342.413 38.99L397.707 6.9354ZM322.404 50.5096L355.522 113.517C348.129 119.727 340.836 125.938 333.542 132.249L280.711 74.7508L322.404 50.5096ZM316.195 147.174C309.591 152.984 302.987 158.694 296.58 164.504C284.063 155.088 270.264 147.374 255.577 141.765L284.654 112.916L316.195 147.174ZM129.415 101.597C119.657 93.8834 110.392 84.267 101.817 72.9478L204.028 25.2666L269.179 96.0871L230.739 134.152C223.643 132.549 216.447 131.347 209.252 130.546C184.611 127.941 155.929 122.432 129.415 101.597ZM94.0304 237.728C96.5931 227.611 100.141 217.794 104.675 208.378C108.519 210.983 112.265 213.687 116.01 216.492C133.259 229.614 148.339 245.141 160.956 262.47C140.356 273.289 118.179 283.807 94.5232 293.824C89.3979 276.093 89.2008 257.161 94.0304 237.728ZM40.6085 395.397L22.8669 359.035C41.2985 352.824 65.0525 344.41 91.5663 333.591L110.885 366.447L40.6085 395.397ZM214.476 401.106L169.728 421.04L113.053 324.676C137.103 314.258 159.871 303.44 180.964 292.221C195.847 314.158 207.281 330.486 214.969 340.904L215.856 342.106C214.575 352.223 213.885 362.44 213.688 372.658C213.589 382.675 213.885 392.191 214.476 401.106ZM231.922 277.195C227.782 288.114 224.333 299.333 221.573 310.652C216.25 303.039 209.548 293.423 201.17 281.102C215.166 273.088 228.275 264.975 240.596 256.761C237.442 263.472 234.583 270.183 231.922 277.195ZM181.161 251.351C166.87 231.217 149.621 213.287 129.711 198.261C125.177 194.755 120.446 191.449 115.616 188.244L115.715 188.044C115.912 187.643 116.207 187.242 116.405 186.942C126.951 170.414 139.469 155.088 153.662 141.264C172.093 148.376 190.131 151.281 206.591 152.984C232.809 155.689 257.844 165.004 279.233 180.03C276.473 182.534 273.812 185.039 271.151 187.543C247.791 209.38 217.334 230.816 181.161 251.351ZM314.223 337.698C304.17 330.887 294.609 324.376 286.33 318.666H286.231H286.132C275.29 311.253 266.617 305.343 261.59 301.937C262.97 297.53 264.547 293.122 266.222 288.715C277.36 259.766 294.116 233.221 316.293 209.48L363.308 260.166C355.62 273.189 331.768 310.452 314.223 337.698ZM405.987 400.806C396.525 394.094 376.812 380.471 334.232 351.322L333.246 350.721C338.47 342.607 348.031 327.681 357.592 312.756C368.434 295.827 375.333 284.908 379.67 277.796L446.497 349.619C440.879 354.727 420.476 374.06 405.987 400.806ZM461.971 332.69L417.814 285.009L432.205 271.686L476.657 319.367L461.971 332.69ZM514.408 360.537L513.323 361.539L500.017 373.66L477.544 349.418L492.231 336.096L514.802 360.237L514.408 360.537ZM553.242 430.957L515.59 390.388L530.375 376.965L568.125 417.434L553.242 430.957ZM585.275 402.108L547.427 361.539L564.084 346.313L602.228 386.782L585.275 402.108ZM580.939 330.887L601.341 312.255L639.091 353.525L619.181 371.456L580.939 330.887ZM693.4 450.29L634.853 388.084L654.566 370.354L712.62 433.762C704.045 440.473 697.737 446.183 693.4 450.29ZM746.231 410.222C740.81 413.628 735.882 416.933 731.151 420.139L671.618 355.028L693.203 335.595L755.595 404.712C752.44 406.415 749.286 408.319 746.231 410.222ZM782.7 389.987C780.531 391.089 778.363 392.191 776.293 393.193L710.255 320.068L764.564 271.085L797.287 306.145L782.7 389.987ZM802.018 277.796L781.517 255.759L810.396 229.715L802.018 277.796Z" fill="#0D3866"/>
<path opacity="0.9688" d="M43.3684 -5.98633C55.5904 15.951 73.332 48.9071 86.3425 71.5456C107.435 108.108 137.99 122.332 145.875 126.639C160.069 134.453 217.236 142.667 240.497 148.677C267.307 155.589 280.909 171.315 295.989 173.72C310.774 176.124 332.261 155.589 332.261 155.589L357.505 135.392L382.75 115.195L433.24 74.8012L534.219 -5.98633" stroke="#3F90E6" stroke-width="11" stroke-linecap="round"/>
<path d="M496.034 34.6904C501.557 34.6904 506.034 30.2133 506.034 24.6904C506.034 19.1676 501.557 14.6904 496.034 14.6904C490.511 14.6904 486.034 19.1676 486.034 24.6904C486.034 30.2133 490.511 34.6904 496.034 34.6904Z" fill="#3F90E6" stroke="black" stroke-width="4"/>
</g>
<defs>
<clipPath id="clip0_922_217">
<rect y="-14" width="920" height="470" fill="white"/>
</clipPath>
</defs>
</svg>
