<svg id="vector-svg" width="100%" height="auto" viewBox="0 0 483 507" fill="none" xmlns="http://www.w3.org/2000/svg">
<g opacity="0.7" clip-path="url(#clip0_922_190)">
<path d="M84.4802 194.188C80.2227 193.095 77.0777 196.078 73.1422 199.197C68.2882 202.882 63.9198 210.547 54.2241 193.322C50.692 187.022 50.2979 176.521 42.444 164.058C37.1191 155.629 20.4119 134.331 47.8651 129.585C63.0726 126.955 85.1543 138.178 92.1161 150.185C96.7801 158.323 79.5245 165.574 88.2908 176.253C93.2395 182.512 99.0345 192.485 96.5505 195.76C94.2301 198.803 88.5406 195.316 84.4802 194.188Z" stroke="white" stroke-width="0.5"/>
<path d="M105.927 145.359C112.47 153.78 94.6716 163.768 101.546 177.62C102.481 179.491 103.449 181.56 104.219 183.662C107.064 190.69 112.081 197.343 111.082 200.97C109.703 207.103 104.26 206.215 98.7568 206.151C92.8586 206.154 87.5406 209.512 80.7231 210.081C72.2912 210.726 70.5248 218.145 59.3699 210.115C56.3583 207.993 53.1032 209.166 49.9248 201.382C47.4485 195.306 44.8807 195.75 43.1259 189.143C40.8327 180.597 43.6278 174.422 32.227 163.792C18.6719 151.298 12.5006 118.015 43.9265 116.241C44.9482 116.268 45.9699 116.294 47.0258 116.518C58.2722 118.029 66.0198 124.007 86.5756 133.461C94.2395 136.607 101.741 139.985 105.927 145.359Z" stroke="white" stroke-width="0.5"/>
<path d="M119.539 140.567C127.997 149.47 109.294 162.459 114.569 178.823C115.375 181.123 116.016 183.655 116.658 186.186C118.72 194.569 125.849 201.67 125.811 206.148C125.606 215.533 120.177 217.081 113.033 218.113C105.657 218.982 97.472 222.226 88.5009 220.932C75.1087 218.775 75.5982 228.65 59.2938 219.071C54.9944 216.562 50.311 221.234 46.0536 209.571C42.6014 200.209 38.2446 204.418 36.0461 195.245C33.0082 183.575 40.5169 177.603 22.2411 163.689C0.652863 147.096 5.15548 102.619 40.2205 103.061C41.6371 103.019 42.9241 103.407 44.2119 103.793C57.0192 107.271 60.6002 116.204 93.2673 128.645C102.778 131.879 113.569 134.282 119.539 140.567Z" stroke="white" stroke-width="0.5"/>
<path d="M133.349 135.739C143.327 145.193 125.068 160.748 127.593 180.027C127.874 182.823 128.387 185.784 128.9 188.744C130.18 198.482 138.432 206.202 140.145 211.393C144.273 223.484 135.898 227.981 127.079 229.912C118.259 231.843 107.37 234.742 96.0137 231.421C77.7907 226.035 80.2096 238.829 58.7198 227.503C53.1327 224.607 47.0553 232.975 41.6853 217.237C37.258 204.588 31.3435 212.724 28.4692 200.823C24.8843 185.996 36.9089 180.259 11.9219 162.83C-17.8966 142.173 -2.48891 86.6648 36.1796 89.1251C37.8282 89.2468 39.3471 89.7972 41.0639 90.3134C55.3979 95.5587 54.8813 107.843 99.5923 122.877C111.514 127.116 125.56 128.346 133.349 135.739Z" stroke="white" stroke-width="0.5"/>
<path d="M146.962 130.947C158.458 140.951 139.064 159.345 140.651 181.428C140.803 184.654 140.989 188.077 141.175 191.5C141.706 202.79 152.268 210.923 154.71 216.802C160.605 232.043 151.618 238.881 141.355 241.875C131.093 244.869 117.499 247.422 103.791 242.271C80.9348 233.622 85.283 249.334 58.6088 236.263C51.9324 232.945 44.4609 245.009 37.7807 225.229C32.4108 209.492 24.674 221.195 21.1915 206.959C16.8619 189.01 33.832 183.636 1.9368 162.729C-35.9149 137.972 -9.79992 71.4657 32.4387 75.7483C34.5163 75.9987 36.2672 76.7126 38.0523 77.6234C53.9471 84.8345 49.332 100.47 106.087 118.096C120.053 122.388 137.387 122.643 146.962 130.947Z" stroke="white" stroke-width="0.5"/>
<path d="M160.574 126.155C173.822 136.872 153.653 157.839 153.675 182.632C153.698 186.286 153.523 189.975 153.579 193.827C153.329 206.472 166.397 214.984 169.208 221.816C176.834 240.01 167.501 249.549 155.598 253.64C143.892 257.697 127.758 259.673 111.502 252.727C83.8138 240.848 90.0914 259.478 58.2675 244.858C50.3026 241.154 41.4371 256.914 33.4466 233.093C27.1007 214.068 17.772 229.502 13.648 212.736C8.57441 191.662 30.2581 186.49 -8.51205 162.299C-54.5931 133.478 -17.7026 56.3692 28.269 62.2416C30.5444 62.4586 32.7585 63.4981 34.7755 64.5724C52.3949 73.5175 43.5177 92.7354 112.317 112.954C128.625 117.858 149.215 116.941 160.574 126.155Z" stroke="white" stroke-width="0.5"/>
<path d="M174.385 121.327C189.152 132.595 168.439 156.298 166.896 183.8C166.592 187.918 166.288 192.035 166.018 196.35C165.182 210.316 181.513 218.874 183.739 227.026C189.876 249.542 183.221 260.449 169.84 265.404C156.657 270.325 137.852 272.154 119.245 263.379C86.9238 248.236 94.9329 269.818 58.1224 253.419C48.8705 249.328 38.5767 268.587 29.5079 240.886C22.3832 218.542 11.1018 237.971 6.49915 218.442C0.879431 194.211 27.1131 189.472 -18.3683 161.767C-72.4826 128.847 -25.0478 40.9714 24.6919 48.632C27.3962 48.9777 29.6444 50.2149 32.0904 51.4179C51.2366 62.1318 38.0981 84.9316 119.335 107.675C137.361 113.095 161.042 111.236 174.385 121.327Z" stroke="white" stroke-width="0.5"/>
<path d="M187.997 116.535C204.283 128.353 183.225 154.758 179.756 185.236C179.323 189.782 178.693 194.362 178.096 199.14C176.478 214.46 195.316 223.399 198.107 232.468C206.01 258.135 198.941 271.348 183.954 277.598C169.327 283.582 148.015 285.031 126.86 274.461C89.9051 256.054 99.8777 280.752 57.8826 262.606C47.3429 258.128 35.6551 281.083 25.4738 249.307C17.3732 223.676 4.5007 246.836 -0.709411 224.973C-7.07388 197.618 24.0712 193.047 -28.3193 161.861C-90.6645 124.877 -32.2563 26.3646 21.0201 35.6492C23.9556 36.1577 26.6336 37.5242 29.1129 38.9249C49.9836 51.3728 32.4201 77.9863 125.83 102.893C145.899 108.366 172.87 105.532 187.997 116.535Z" stroke="white" stroke-width="0.5"/>
<path d="M201.842 111.905C219.681 124.471 198.046 153.415 193.012 186.602C192.252 191.612 191.492 196.621 190.569 201.861C188.168 218.537 209.316 227.888 212.673 237.877C222.342 266.693 214.696 282.445 198.23 289.56C181.963 296.641 158.11 297.513 134.604 285.114C93.0153 263.443 104.72 291.093 57.5406 271.202C45.679 266.139 32.6312 292.988 21.3375 257.136C12.2609 228.218 -2.36633 255.34 -8.05509 230.714C-15.1302 200.434 20.6944 195.867 -38.5703 161.398C-109.146 120.348 -39.9961 11.0363 17.0475 22.1084C20.215 22.7804 23.3219 24.2756 26.0674 26.0367C48.6619 40.2194 26.8711 70.6124 132.291 97.9142C154.437 103.638 184.697 99.8288 201.842 111.905Z" stroke="white" stroke-width="0.5"/>
<path d="M215.454 107.114C234.813 120.23 212.634 151.909 206.036 187.806C205.147 193.244 203.863 198.751 202.974 204.189C199.79 222.219 223.41 231.753 227.367 242.858C238.605 274.858 230.742 292.883 212.472 301.326C194.761 309.47 168.402 309.962 142.151 295.802C95.9283 270.867 109.528 301.239 57.2326 279.996C44.0832 274.546 29.6072 304.894 17.2352 265.164C7.18266 232.959 -9.03651 263.811 -15.3668 236.654C-23.1859 203.251 17.3856 199.081 -48.5902 161.099C-127.198 115.95 -47.4708 -3.93067 13.2725 8.53428C16.869 9.335 19.976 10.831 23.1853 12.9185C47.3065 28.8692 21.2878 63.0426 138.915 92.7047C163.207 99.074 196.525 94.1263 215.454 107.114Z" stroke="white" stroke-width="0.5"/>
<path d="M229.265 102.286C250.176 116.15 227.455 150.566 219.093 189.207C217.844 194.91 216.464 201.043 215.249 206.944C211.317 226.526 237.212 236.277 241.735 248.299C254.739 283.449 246.298 304.014 226.552 313.322C207.363 322.331 178.497 322.443 149.731 306.686C98.8754 278.487 114.207 311.812 56.7267 288.823C42.2903 282.985 26.4202 317.03 12.7379 273.258C1.70943 237.766 -16.2994 272.383 -23.0735 242.661C-31.4395 206.099 13.8457 202.131 -59.2021 160.9C-146.041 111.687 -55.5374 -18.7968 8.93967 -4.74128C12.734 -3.97467 16.3041 -2.15232 19.5476 0.132008C45.3926 17.8175 14.9496 55.8045 144.783 87.8277C171.746 94.345 208.353 88.423 229.265 102.286Z" stroke="white" stroke-width="0.5"/>
<path d="M242.877 97.495C265.309 111.909 242.044 149.061 232.117 190.411C230.541 196.577 228.999 202.942 227.491 209.504C222.776 230.44 251.179 240.57 256.07 253.545C270.839 291.845 261.985 314.717 240.597 325.122C219.965 335.193 188.395 334.961 157.244 317.176C101.754 285.713 118.817 321.99 56.3854 297.419C40.6612 291.194 23.3971 328.935 8.60146 281.087C-3.40289 242.31 -22.9687 280.855 -30.3851 248.601C-39.4951 208.916 10.5378 205.347 -69.2554 160.403C-164.127 107.091 -63.0453 -33.9609 5.16478 -18.3156C9.38811 -17.4196 13.1902 -15.4344 16.6998 -12.7897C44.2693 6.63055 9.40054 48.4313 151.408 82.6186C180.482 89.5832 219.983 82.7542 242.877 97.495Z" stroke="white" stroke-width="0.5"/>
<path d="M256.688 92.6677C280.672 107.829 256.829 147.52 245.339 191.58C243.633 198.175 241.764 205.003 240.126 211.993C234.63 234.285 265.341 244.828 270.996 258.688C287.532 300.137 278.1 325.548 255.269 337.016C233.193 348.149 199.116 347.537 165.417 327.958C105.293 293.231 124.286 332.426 56.4714 306.143C39.4602 299.532 20.802 340.968 4.89395 289.044C-8.08633 246.98 -29.4411 289.29 -37.302 254.47C-47.1567 211.662 7.58977 208.295 -78.8805 160.034C-181.982 102.658 -70.1243 -48.9976 1.81879 -31.7617C6.27407 -30.7029 10.3073 -28.5542 14.2459 -25.78C43.54 -4.62577 4.444 40.9545 158.461 77.537C189.055 85.0519 231.811 77.0502 256.688 92.6677Z" stroke="white" stroke-width="0.5"/>
<path d="M270.3 87.8754C295.839 103.785 271.582 145.783 258.397 192.981C256.364 200.04 254.367 207.296 252.402 214.749C246.123 238.395 279.307 249.121 285.364 264.13C303.666 308.73 293.622 336.482 269.348 349.013C245.632 361.243 209.212 360.019 172.997 338.842C108.241 300.852 129 343.197 56.1985 315.133C37.8995 308.135 17.8124 353.071 0.825974 297.268C-12.9332 251.883 -36.0769 297.957 -44.5794 260.606C-54.9802 214.642 4.47909 211.475 -89.0624 159.965C-200.198 98.4901 -77.7617 -63.7333 -2.08475 -44.9076C2.60249 -43.6852 7.06476 -41.4079 11.0375 -38.4368C42.0561 -15.5478 -1.46492 33.8461 164.759 72.7897C197.593 80.324 243.638 71.3472 270.3 87.8754Z" stroke="white" stroke-width="0.5"/>
<path d="M284.11 83.0486C311.168 99.5086 286.368 144.243 271.42 194.184C269.259 201.672 266.934 209.391 264.61 217.11C257.548 242.111 293.041 253.25 299.862 269.145C319.929 316.894 309.505 347.151 283.591 360.778C258.397 373.873 219.504 372.468 180.707 349.297C111.317 308.043 134.006 353.307 55.8221 323.532C36.4323 316.112 14.7548 364.778 -3.3448 304.9C-18.0799 256.228 -42.9784 306.264 -51.9254 266.349C-63.0702 217.259 1.13686 214.492 -99.1166 159.468C-218.481 93.9276 -85.4677 -78.8648 -5.85987 -58.4826C-0.743628 -57.1308 3.9506 -54.6906 8.1553 -51.556C40.8977 -26.933 -7.04834 26.2753 171.58 67.5451C206.329 75.5615 255.5 65.8406 284.11 83.0486Z" stroke="white" stroke-width="0.5"/>
<path d="M297.723 78.2552C326.532 95.4291 300.957 142.736 284.478 195.584C281.99 203.535 279.339 211.717 276.885 219.865C269.04 246.221 307.04 257.74 314.229 274.586C336.029 325.288 325.062 358.281 297.472 372.808C270.836 386.966 229.238 385.215 188.091 360.215C114.067 315.697 138.487 363.913 55.3506 332.556C34.6739 324.749 11.6015 377.111 -7.80761 313.191C-23.5186 261.233 -50.009 314.999 -59.5976 272.552C-71.4872 220.341 -2.56648 217.774 -109.728 159.27C-237.324 89.6644 -93.534 -93.7302 -10.2273 -71.9551C-4.87907 -70.4413 0.0471171 -67.8376 4.71496 -64.3758C38.9841 -37.984 -13.155 19.2 177.612 62.4371C214.901 71.0302 267.327 60.1372 297.723 78.2552Z" stroke="white" stroke-width="0.5"/>
<path d="M311.567 73.6264C341.895 91.3499 315.777 141.393 297.733 196.952C294.918 205.365 292.138 213.975 289.555 222.552C280.928 250.263 321.203 261.999 329.19 279.927C352.755 333.779 341.374 369.079 312.177 384.9C284.063 399.923 239.959 397.792 196.297 371.195C117.803 323.181 143.792 374.582 55.4714 341.478C33.5069 333.283 9.0071 389.145 -11.4811 321.346C-28.1681 266.103 -56.4133 323.831 -66.4805 278.62C-79.1148 223.285 -5.28268 220.886 -119.319 159.099C-254.947 85.3945 -100.58 -108.569 -13.5385 -85.2034C-7.79618 -83.7578 -2.60394 -80.7937 2.09804 -77.1351C38.0917 -49.0085 -18.4724 11.99 184.502 57.5873C223.44 66.3021 279.155 54.4341 311.567 73.6264Z" stroke="white" stroke-width="0.5"/>
<path d="M325.18 68.8344C357.061 87.3059 330.366 139.889 310.758 198.156C307.814 206.998 304.706 216.072 301.797 225.112C292.421 254.375 335.169 266.292 343.524 285.173C368.856 342.175 356.863 379.816 326.223 396.7C296.468 412.819 250.055 410.274 203.612 381.719C120.485 330.442 148.403 384.761 54.8976 349.912C31.6119 341.132 5.94923 400.853 -15.8493 329.013C-33.5122 270.482 -63.3485 331.941 -74.0232 284.397C-87.2044 225.904 -8.82231 223.937 -129.569 158.636C-273.428 80.8668 -108.285 -123.699 -17.5102 -98.7436C-11.536 -97.1344 -5.94964 -94.2385 -0.981571 -90.2194C36.7366 -60.3589 -24.0547 4.41913 190.928 52.4116C232.176 61.5404 290.785 48.7654 325.18 68.8344Z" stroke="white" stroke-width="0.5"/>
<path d="M338.99 64.0071C372.425 83.2265 345.152 138.348 323.816 199.556C320.545 208.861 317.274 218.167 314.038 227.669C303.88 258.287 348.937 270.619 357.858 290.417C384.955 350.569 372.583 390.716 340.268 408.498C309.07 425.68 260.116 422.559 211.159 392.405C123.398 337.865 153.047 395.135 54.3924 358.737C29.8189 349.572 2.76222 412.989 -20.1488 337.073C-38.7875 275.255 -70.4136 340.479 -81.7298 290.403C-95.655 228.788 -12.5593 227.022 -140.181 158.438C-292.073 76.5697 -116.351 -138.565 -21.8438 -112.019C-15.6376 -110.246 -9.8193 -107.188 -4.38809 -102.842C35.0547 -71.247 -30.1283 -2.45768 197.029 47.6982C240.749 57.0091 302.613 43.0614 338.99 64.0071Z" stroke="white" stroke-width="0.5"/>
<path d="M352.603 59.2148C387.556 78.9846 359.741 136.842 336.839 200.76C333.439 210.494 329.843 220.262 326.476 230.193C315.537 262.166 363.1 274.878 372.587 295.595C401.451 358.896 388.501 401.582 354.742 420.427C322.1 438.671 270.442 435.205 219.101 403.024C126.706 345.22 158.087 405.444 54.4453 367.266C28.584 357.712 0.133199 424.826 -23.8902 344.834C-43.505 279.73 -76.6888 348.881 -88.6807 296.077C-103.351 231.337 -15.3094 229.937 -149.875 157.675C-309.996 71.7418 -123.697 -153.961 -25.2579 -125.86C-18.6227 -123.958 -12.5725 -120.735 -7.10711 -116.193C34.0594 -82.8636 -35.5478 -10.2605 203.782 42.0595C249.485 52.2471 314.474 37.5552 352.603 59.2148Z" stroke="white" stroke-width="0.5"/>
<path d="M366.413 54.3873C402.921 74.9051 374.724 135.267 350.061 201.929C346.334 212.126 342.41 222.357 338.915 232.717C327.193 266.044 377.031 278.972 387.119 300.805C417.748 367.257 404.187 412.283 368.985 432.191C334.866 451.301 280.734 447.652 226.844 413.677C129.816 352.607 163.127 415.75 54.1373 376.057C26.9882 366.117 -2.89077 436.73 -28.2245 352.696C-48.8151 284.306 -83.7871 357.222 -96.1902 302.049C-111.406 234.153 -18.8493 232.987 -160.092 157.408C-328.246 67.3762 -131.368 -168.896 -29.2299 -139.401C-22.3628 -137.336 -15.8835 -133.985 -10.1862 -129.279C32.7041 -94.2154 -41.3282 -17.798 210.209 36.8824C258.023 47.518 326.303 31.851 366.413 54.3873Z" stroke="white" stroke-width="0.5"/>
<path d="M380.026 49.5956C418.086 70.8599 389.115 133.795 363.118 203.33C359.065 213.99 355.012 224.65 351.19 235.473C338.686 270.155 391.031 283.462 401.684 306.213C434.045 375.618 420.138 423.347 383.296 444.351C347.733 464.524 291.061 460.297 234.656 424.725C132.994 360.391 168.037 426.486 54.0604 385.014C25.6243 374.687 -5.64876 448.996 -32.095 360.886C-53.4645 289.175 -90.2262 365.855 -103.27 308.151C-119.197 237.329 -21.9602 236.168 -170.077 157.305C-346.462 63.2086 -138.808 -183.666 -32.9367 -152.581C-25.6405 -150.387 -19.1271 -146.838 -13.0008 -142.003C31.6141 -105.205 -46.8091 -24.777 217.098 32.0334C266.595 42.9876 337.932 26.1827 380.026 49.5956Z" stroke="white" stroke-width="0.5"/>
<path d="M393.837 44.7687C433.416 66.5841 404.099 132.221 376.142 204.533C371.96 215.622 367.58 226.745 363.398 237.834C350.111 273.871 404.765 287.591 415.984 311.262C450.109 383.816 435.592 433.887 397.109 455.986C360.103 477.222 300.925 472.616 241.937 435.051C135.805 367.223 172.614 436.468 53.2893 393.48C23.5654 382.766 -9.10095 460.771 -36.6604 368.586C-59.0058 293.588 -97.5223 374.23 -111.045 313.764C-127.716 239.817 -25.732 239.056 -180.559 156.679C-365.175 58.5173 -146.745 -198.96 -37.1406 -166.285C-29.6466 -164.125 -22.67 -160.25 -16.4755 -155.02C29.8639 -116.488 -52.9152 -31.8518 223.131 26.9251C275.134 38.2592 349.76 20.4791 393.837 44.7687Z" stroke="white" stroke-width="0.5"/>
<path d="M407.449 39.9766C448.58 62.5392 418.688 130.715 389.166 205.738C384.623 217.092 380.148 228.841 375.837 240.358C361.801 277.948 418.894 291.654 430.55 316.67C466.64 392.341 451.544 444.95 411.386 467.95C372.739 490.281 311.217 485.064 249.716 445.902C138.95 374.809 177.49 447.007 53.179 402.24C22.1674 391.138 -11.9279 472.642 -40.5657 376.578C-63.8871 298.294 -103.995 382.667 -118.159 319.669C-135.574 242.6 -28.6793 242.005 -190.613 156.182C-383.262 53.9213 -154.451 -214.091 -40.9156 -179.86C-33.1904 -177.536 -25.7833 -173.532 -19.3575 -168.139C28.7064 -127.873 -58.4985 -39.4221 229.72 21.5183C283.903 33.6949 361.622 14.973 407.449 39.9766Z" stroke="white" stroke-width="0.5"/>
<path d="M421.293 35.3472C463.98 58.6579 433.508 129.372 402.455 207.301C397.783 219.084 392.982 231.297 388.344 243.277C373.526 282.221 432.928 296.341 445.347 322.242C483.203 401.061 467.533 456.21 425.929 480.272C385.804 503.473 321.612 498.101 257.562 457.146C142.196 382.988 182.435 457.94 52.9736 411.625C20.675 400.136 -14.8145 485.335 -44.5655 385.196C-68.862 303.625 -110.725 391.96 -125.334 326.397C-143.296 246.17 -31.8513 246.008 -200.496 156.671C-401.375 50.3453 -161.755 -228.072 -44.5189 -192.447C-36.3647 -189.995 -28.9584 -185.992 -22.0687 -180.272C27.719 -138.271 -63.911 -46.0071 236.515 17.2943C292.442 28.9663 373.45 9.26936 421.293 35.3472Z" stroke="white" stroke-width="0.5"/>
<path d="M459.643 327.291C537.32 488.048 400.622 554.973 265.074 467.637C145.075 390.214 187.277 468.282 52.5973 420.024C19.2079 408.114 -17.8726 497.047 -48.9331 392.862C-74.2063 308.005 -117.661 400.07 -132.912 331.976C-151.618 248.626 -35.4594 248.665 -210.781 156.011C-434.239 37.9389 -132.514 -284.753 -25.3805 -193.52C25.9688 -149.553 -69.7596 -53.9387 242.71 11.9556C300.981 24.2383 385.079 3.60115 434.906 30.5549C485.855 58.1272 436.907 151.346 400.586 245.836C384.951 285.937 446.662 300.471 459.643 327.291Z" stroke="white" stroke-width="0.5"/>
</g>
<defs>
<clipPath id="clip0_922_190">
<rect width="775" height="717" fill="white" transform="translate(-292 -210)"/>
</clipPath>
</defs>
</svg>

