{
  "accessors": [
    {
      "bufferView": 2,
      "componentType": 5126,
      "count": 3754,
      "max": [
        0.1236250028014183,
        -0.10565199702978134,
        0.280813992023468
      ],
      "min": [
        -0.1236250028014183,
        -0.23704899847507477,
        -0.06888899952173233
      ],
      "type": "VEC3"
    },
    {
      "bufferView": 2,
      "byteOffset": 45048,
      "componentType": 5126,
      "count": 3754,
      "max": [
        0.9947758913040161,
        0.23121140897274017,
        0.9999843835830688
      ],
      "min": [
        -0.9947851300239563,
        -0.9998156428337097,
        -0.9996264576911926
      ],
      "type": "VEC3"
    },
    {
      "bufferView": 1,
      "componentType": 5126,
      "count": 3754,
      "max": [
        0.4940910041332245,
        0.9271619915962219
      ],
      "min": [
        0.043703000992536545,
        0.28227800130844116
      ],
      "type": "VEC2"
    },
    {
      "bufferView": 0,
      "componentType": 5125,
      "count": 21720,
      "type": "SCALAR"
    }
  ],
  "asset": {
    "extras": {
      "author": "assetfactory (https://sketchfab.com/assetfactory)",
      "license": "SKETCHFAB Standard (https://sketchfab.com/licenses)",
      "source": "https://sketchfab.com/3d-models/face-mask-87044ee19e194cccaa387ff5bad257a6",
      "title": "Face Mask"
    },
    "generator": "Sketchfab-16.33.0",
    "version": "2.0"
  },
  "bufferViews": [
    {
      "buffer": 0,
      "byteLength": 86880,
      "name": "floatBufferViews",
      "target": 34963
    },
    {
      "buffer": 0,
      "byteLength": 30032,
      "byteOffset": 86880,
      "byteStride": 8,
      "name": "floatBufferViews",
      "target": 34962
    },
    {
      "buffer": 0,
      "byteLength": 90096,
      "byteOffset": 116912,
      "byteStride": 12,
      "name": "floatBufferViews",
      "target": 34962
    }
  ],
  "buffers": [
    {
      "byteLength": 207008,
      "uri": "scene.bin"
    }
  ],
  "materials": [
    {
      "doubleSided": true,
      "name": "None",
      "pbrMetallicRoughness": {
        "baseColorFactor": [
          0.5230807040334987,
          0.5230807040334987,
          0.5230807040334987,
          1.0
        ],
        "metallicFactor": 0.0,
        "roughnessFactor": 0.0
      }
    }
  ],
  "meshes": [
    {
      "name": "Object_0",
      "primitives": [
        {
          "attributes": {
            "NORMAL": 1,
            "POSITION": 0,
            "TEXCOORD_0": 2
          },
          "indices": 3,
          "material": 0,
          "mode": 4
        }
      ]
    }
  ],
  "nodes": [
    {
      "children": [
        1
      ],
      "matrix": [
        1.0,
        0.0,
        0.0,
        0.0,
        0.0,
        2.220446049250313e-16,
        -1.0,
        0.0,
        0.0,
        1.0,
        2.220446049250313e-16,
        0.0,
        0.0,
        0.0,
        0.0,
        1.0
      ],
      "name": "Sketchfab_model"
    },
    {
      "children": [
        2
      ],
      "name": "d31bdd5fe7ab425db3ca0a3401fec4d9.obj.cleaner.materialmerger.gles"
    },
    {
      "mesh": 0,
      "name": "Object_2"
    }
  ],
  "scene": 0,
  "scenes": [
    {
      "name": "Sketchfab_Scene",
      "nodes": [
        0
      ]
    }
  ]
}
